<mxfile host="app.diagrams.net" modified="2021-11-08T07:17:45.525Z" agent="5.0 (Macintosh; Intel Mac OS X 10_15_7) AppleWebKit/537.36 (KHTML, like Gecko) Chrome/95.0.4638.69 Safari/537.36" etag="TtQiDy8yLwZh4NXeVlQH" version="15.7.0" type="github" pages="2">
  <diagram name="Page-1" id="8ce9d11a-91a2-4d17-14d8-a56ed91bf033">
    <mxGraphModel dx="926" dy="532" grid="1" gridSize="10" guides="1" tooltips="1" connect="1" arrows="1" fold="1" page="1" pageScale="1" pageWidth="1100" pageHeight="850" background="none" math="0" shadow="0">
      <root>
        <mxCell id="0" />
        <mxCell id="1" parent="0" />
        <mxCell id="17ea667e15c223fc-28" style="edgeStyle=orthogonalEdgeStyle;rounded=1;html=1;labelBackgroundColor=none;startArrow=none;startFill=0;startSize=5;endArrow=classicThin;endFill=1;endSize=5;jettySize=auto;orthogonalLoop=1;strokeWidth=1;fontFamily=Verdana;fontSize=8" parent="1" source="17ea667e15c223fc-1" target="17ea667e15c223fc-2" edge="1">
          <mxGeometry relative="1" as="geometry" />
        </mxCell>
        <mxCell id="17ea667e15c223fc-1" value="new Graph(&lt;br&gt;{&lt;br&gt;nodes,&lt;br&gt;items,&lt;br&gt;config={}&lt;br&gt;}&lt;br&gt;)" style="shape=hexagon;perimeter=hexagonPerimeter;whiteSpace=wrap;html=1;rounded=0;shadow=0;labelBackgroundColor=none;strokeWidth=1;fontFamily=Verdana;fontSize=12;align=center;" parent="1" vertex="1">
          <mxGeometry x="30" y="45" width="120" height="110" as="geometry" />
        </mxCell>
        <mxCell id="17ea667e15c223fc-2" value="Graph.init()&amp;nbsp;" style="rounded=1;whiteSpace=wrap;html=1;shadow=0;labelBackgroundColor=none;strokeWidth=1;fontFamily=Verdana;fontSize=12;align=center;" parent="1" vertex="1">
          <mxGeometry x="180" y="60" width="120" height="80" as="geometry" />
        </mxCell>
        <mxCell id="17ea667e15c223fc-30" style="edgeStyle=orthogonalEdgeStyle;rounded=1;html=1;labelBackgroundColor=none;startArrow=none;startFill=0;startSize=5;endArrow=classicThin;endFill=1;endSize=5;jettySize=auto;orthogonalLoop=1;strokeWidth=1;fontFamily=Verdana;fontSize=8;exitX=0.5;exitY=1;exitDx=0;exitDy=0;" parent="1" source="17ea667e15c223fc-2" target="17ea667e15c223fc-5" edge="1">
          <mxGeometry relative="1" as="geometry">
            <mxPoint x="259.99991349462266" y="180.05882352941182" as="sourcePoint" />
          </mxGeometry>
        </mxCell>
        <mxCell id="17ea667e15c223fc-5" value="Graph.render()" style="shape=hexagon;perimeter=hexagonPerimeter;whiteSpace=wrap;html=1;rounded=0;shadow=0;labelBackgroundColor=none;strokeWidth=1;fontFamily=Verdana;fontSize=12;align=center;" parent="1" vertex="1">
          <mxGeometry x="180" y="180" width="120" height="80" as="geometry" />
        </mxCell>
        <mxCell id="Io-u_CDgHD77KVOLodCP-3" style="edgeStyle=orthogonalEdgeStyle;rounded=0;orthogonalLoop=1;jettySize=auto;html=1;entryX=0;entryY=0.5;entryDx=0;entryDy=0;" edge="1" parent="1" source="17ea667e15c223fc-8">
          <mxGeometry relative="1" as="geometry">
            <mxPoint x="179.99999999999977" y="350" as="targetPoint" />
          </mxGeometry>
        </mxCell>
        <mxCell id="17ea667e15c223fc-8" value="Graph.add()" style="rounded=1;whiteSpace=wrap;html=1;shadow=0;labelBackgroundColor=none;strokeWidth=1;fontFamily=Verdana;fontSize=12;align=center;" parent="1" vertex="1">
          <mxGeometry x="10" y="310" width="120" height="80" as="geometry" />
        </mxCell>
        <mxCell id="Io-u_CDgHD77KVOLodCP-2" style="edgeStyle=orthogonalEdgeStyle;rounded=0;orthogonalLoop=1;jettySize=auto;html=1;entryX=0;entryY=0.5;entryDx=0;entryDy=0;" edge="1" parent="1" source="Io-u_CDgHD77KVOLodCP-1" target="17ea667e15c223fc-5">
          <mxGeometry relative="1" as="geometry" />
        </mxCell>
        <mxCell id="Io-u_CDgHD77KVOLodCP-1" value="Graph.refresh()" style="rounded=0;whiteSpace=wrap;html=1;" vertex="1" parent="1">
          <mxGeometry x="10" y="190" width="120" height="60" as="geometry" />
        </mxCell>
        <mxCell id="Io-u_CDgHD77KVOLodCP-7" style="edgeStyle=orthogonalEdgeStyle;rounded=0;orthogonalLoop=1;jettySize=auto;html=1;exitX=1;exitY=0.5;exitDx=0;exitDy=0;dashed=1;" edge="1" parent="1" source="Io-u_CDgHD77KVOLodCP-5" target="Io-u_CDgHD77KVOLodCP-6">
          <mxGeometry relative="1" as="geometry" />
        </mxCell>
        <mxCell id="Io-u_CDgHD77KVOLodCP-21" style="edgeStyle=orthogonalEdgeStyle;rounded=0;orthogonalLoop=1;jettySize=auto;html=1;entryX=0;entryY=0.5;entryDx=0;entryDy=0;entryPerimeter=0;" edge="1" parent="1" source="Io-u_CDgHD77KVOLodCP-5" target="Io-u_CDgHD77KVOLodCP-20">
          <mxGeometry relative="1" as="geometry">
            <Array as="points">
              <mxPoint x="150" y="360" />
              <mxPoint x="150" y="630" />
            </Array>
          </mxGeometry>
        </mxCell>
        <mxCell id="Io-u_CDgHD77KVOLodCP-5" value="Graph.addItem()" style="rounded=1;whiteSpace=wrap;html=1;" vertex="1" parent="1">
          <mxGeometry x="180" y="330" width="120" height="60" as="geometry" />
        </mxCell>
        <mxCell id="Io-u_CDgHD77KVOLodCP-9" style="edgeStyle=orthogonalEdgeStyle;rounded=0;orthogonalLoop=1;jettySize=auto;html=1;exitX=1;exitY=0.5;exitDx=0;exitDy=0;" edge="1" parent="1" source="Io-u_CDgHD77KVOLodCP-6" target="Io-u_CDgHD77KVOLodCP-8">
          <mxGeometry relative="1" as="geometry" />
        </mxCell>
        <mxCell id="Io-u_CDgHD77KVOLodCP-6" value="ItemController&lt;br&gt;.addItem(&lt;br&gt;config,&lt;br&gt;group&lt;br&gt;)" style="rounded=1;whiteSpace=wrap;html=1;" vertex="1" parent="1">
          <mxGeometry x="360" y="315" width="120" height="80" as="geometry" />
        </mxCell>
        <mxCell id="Io-u_CDgHD77KVOLodCP-11" style="edgeStyle=orthogonalEdgeStyle;rounded=0;orthogonalLoop=1;jettySize=auto;html=1;entryX=0;entryY=0.5;entryDx=0;entryDy=0;" edge="1" parent="1" source="Io-u_CDgHD77KVOLodCP-8" target="Io-u_CDgHD77KVOLodCP-10">
          <mxGeometry relative="1" as="geometry" />
        </mxCell>
        <mxCell id="Io-u_CDgHD77KVOLodCP-8" value="new Node/Edge/Combo" style="rounded=1;whiteSpace=wrap;html=1;" vertex="1" parent="1">
          <mxGeometry x="550" y="330" width="120" height="60" as="geometry" />
        </mxCell>
        <mxCell id="Io-u_CDgHD77KVOLodCP-13" style="edgeStyle=orthogonalEdgeStyle;rounded=0;orthogonalLoop=1;jettySize=auto;html=1;entryX=0.5;entryY=0;entryDx=0;entryDy=0;" edge="1" parent="1" source="Io-u_CDgHD77KVOLodCP-10" target="Io-u_CDgHD77KVOLodCP-12">
          <mxGeometry relative="1" as="geometry" />
        </mxCell>
        <mxCell id="Io-u_CDgHD77KVOLodCP-10" value="Item.init()" style="rounded=1;whiteSpace=wrap;html=1;" vertex="1" parent="1">
          <mxGeometry x="750" y="330" width="120" height="50" as="geometry" />
        </mxCell>
        <mxCell id="Io-u_CDgHD77KVOLodCP-16" style="edgeStyle=orthogonalEdgeStyle;rounded=0;orthogonalLoop=1;jettySize=auto;html=1;entryX=0.999;entryY=0.391;entryDx=0;entryDy=0;entryPerimeter=0;" edge="1" parent="1" source="Io-u_CDgHD77KVOLodCP-12" target="Io-u_CDgHD77KVOLodCP-15">
          <mxGeometry relative="1" as="geometry" />
        </mxCell>
        <mxCell id="Io-u_CDgHD77KVOLodCP-12" value="Item.draw()" style="rounded=1;whiteSpace=wrap;html=1;" vertex="1" parent="1">
          <mxGeometry x="750" y="460" width="120" height="60" as="geometry" />
        </mxCell>
        <mxCell id="Io-u_CDgHD77KVOLodCP-18" style="edgeStyle=orthogonalEdgeStyle;rounded=0;orthogonalLoop=1;jettySize=auto;html=1;entryX=1;entryY=0.5;entryDx=0;entryDy=0;" edge="1" parent="1" source="Io-u_CDgHD77KVOLodCP-15" target="Io-u_CDgHD77KVOLodCP-17">
          <mxGeometry relative="1" as="geometry" />
        </mxCell>
        <mxCell id="Io-u_CDgHD77KVOLodCP-15" value="getShapeFactory()" style="rounded=1;whiteSpace=wrap;html=1;" vertex="1" parent="1">
          <mxGeometry x="550" y="460" width="120" height="60" as="geometry" />
        </mxCell>
        <mxCell id="Io-u_CDgHD77KVOLodCP-39" style="edgeStyle=orthogonalEdgeStyle;rounded=0;orthogonalLoop=1;jettySize=auto;html=1;entryX=1;entryY=0.5;entryDx=0;entryDy=0;" edge="1" parent="1" source="Io-u_CDgHD77KVOLodCP-17" target="Io-u_CDgHD77KVOLodCP-38">
          <mxGeometry relative="1" as="geometry" />
        </mxCell>
        <mxCell id="Io-u_CDgHD77KVOLodCP-17" value="Shape.draw()" style="rounded=1;whiteSpace=wrap;html=1;" vertex="1" parent="1">
          <mxGeometry x="380" y="460" width="100" height="60" as="geometry" />
        </mxCell>
        <mxCell id="Io-u_CDgHD77KVOLodCP-23" style="edgeStyle=orthogonalEdgeStyle;rounded=0;orthogonalLoop=1;jettySize=auto;html=1;entryX=0;entryY=0.5;entryDx=0;entryDy=0;" edge="1" parent="1" source="Io-u_CDgHD77KVOLodCP-20" target="Io-u_CDgHD77KVOLodCP-22">
          <mxGeometry relative="1" as="geometry" />
        </mxCell>
        <mxCell id="Io-u_CDgHD77KVOLodCP-20" value="Graph.paint()" style="rounded=1;whiteSpace=wrap;html=1;" vertex="1" parent="1">
          <mxGeometry x="180" y="600" width="120" height="60" as="geometry" />
        </mxCell>
        <mxCell id="Io-u_CDgHD77KVOLodCP-26" style="edgeStyle=orthogonalEdgeStyle;rounded=0;orthogonalLoop=1;jettySize=auto;html=1;entryX=0;entryY=0.5;entryDx=0;entryDy=0;" edge="1" parent="1" source="Io-u_CDgHD77KVOLodCP-22" target="Io-u_CDgHD77KVOLodCP-24">
          <mxGeometry relative="1" as="geometry" />
        </mxCell>
        <mxCell id="Io-u_CDgHD77KVOLodCP-22" value="Canvas.draw()" style="rounded=1;whiteSpace=wrap;html=1;" vertex="1" parent="1">
          <mxGeometry x="400" y="600" width="130" height="60" as="geometry" />
        </mxCell>
        <mxCell id="Io-u_CDgHD77KVOLodCP-28" style="edgeStyle=orthogonalEdgeStyle;rounded=0;orthogonalLoop=1;jettySize=auto;html=1;exitX=0.5;exitY=1;exitDx=0;exitDy=0;entryX=0.5;entryY=0;entryDx=0;entryDy=0;" edge="1" parent="1" source="Io-u_CDgHD77KVOLodCP-24" target="Io-u_CDgHD77KVOLodCP-25">
          <mxGeometry relative="1" as="geometry" />
        </mxCell>
        <mxCell id="Io-u_CDgHD77KVOLodCP-24" value="Canvas.startDraw()" style="rounded=1;whiteSpace=wrap;html=1;" vertex="1" parent="1">
          <mxGeometry x="620" y="600" width="120" height="60" as="geometry" />
        </mxCell>
        <mxCell id="Io-u_CDgHD77KVOLodCP-30" style="edgeStyle=orthogonalEdgeStyle;rounded=0;orthogonalLoop=1;jettySize=auto;html=1;entryX=1;entryY=0.5;entryDx=0;entryDy=0;" edge="1" parent="1" source="Io-u_CDgHD77KVOLodCP-25" target="Io-u_CDgHD77KVOLodCP-29">
          <mxGeometry relative="1" as="geometry" />
        </mxCell>
        <mxCell id="Io-u_CDgHD77KVOLodCP-25" value="Canvas.drawAll()" style="rounded=1;whiteSpace=wrap;html=1;" vertex="1" parent="1">
          <mxGeometry x="620" y="705" width="120" height="60" as="geometry" />
        </mxCell>
        <mxCell id="Io-u_CDgHD77KVOLodCP-34" style="edgeStyle=orthogonalEdgeStyle;rounded=0;orthogonalLoop=1;jettySize=auto;html=1;entryX=1;entryY=0.5;entryDx=0;entryDy=0;" edge="1" parent="1" source="Io-u_CDgHD77KVOLodCP-29" target="Io-u_CDgHD77KVOLodCP-33">
          <mxGeometry relative="1" as="geometry" />
        </mxCell>
        <mxCell id="Io-u_CDgHD77KVOLodCP-29" value="Canvas.drawChildren" style="rounded=1;whiteSpace=wrap;html=1;" vertex="1" parent="1">
          <mxGeometry x="410" y="710" width="120" height="60" as="geometry" />
        </mxCell>
        <mxCell id="Io-u_CDgHD77KVOLodCP-33" value="Children.draw()" style="rounded=1;whiteSpace=wrap;html=1;" vertex="1" parent="1">
          <mxGeometry x="180" y="715" width="120" height="50" as="geometry" />
        </mxCell>
        <mxCell id="Io-u_CDgHD77KVOLodCP-37" value="" style="curved=1;endArrow=classic;html=1;rounded=0;entryX=0.5;entryY=0;entryDx=0;entryDy=0;exitX=0;exitY=0.5;exitDx=0;exitDy=0;" edge="1" parent="1" source="Io-u_CDgHD77KVOLodCP-33" target="Io-u_CDgHD77KVOLodCP-33">
          <mxGeometry width="50" height="50" relative="1" as="geometry">
            <mxPoint x="90" y="770" as="sourcePoint" />
            <mxPoint x="140" y="720" as="targetPoint" />
            <Array as="points">
              <mxPoint x="140" y="770" />
              <mxPoint x="130" y="760" />
              <mxPoint x="90" y="720" />
            </Array>
          </mxGeometry>
        </mxCell>
        <mxCell id="Io-u_CDgHD77KVOLodCP-38" value="Group.add()" style="rounded=1;whiteSpace=wrap;html=1;" vertex="1" parent="1">
          <mxGeometry x="180" y="460" width="120" height="60" as="geometry" />
        </mxCell>
      </root>
    </mxGraphModel>
  </diagram>
  <diagram id="4KKUV-NfK35O08UQdXNA" name="Page-2">
    <mxGraphModel dx="926" dy="532" grid="1" gridSize="10" guides="1" tooltips="1" connect="1" arrows="1" fold="1" page="1" pageScale="1" pageWidth="850" pageHeight="1100" math="0" shadow="0">
      <root>
        <mxCell id="eYRsBCzG8zbw765XDVCu-0" />
        <mxCell id="eYRsBCzG8zbw765XDVCu-1" parent="eYRsBCzG8zbw765XDVCu-0" />
        <mxCell id="eYRsBCzG8zbw765XDVCu-4" style="edgeStyle=orthogonalEdgeStyle;rounded=0;orthogonalLoop=1;jettySize=auto;html=1;entryX=0;entryY=0.5;entryDx=0;entryDy=0;" edge="1" parent="eYRsBCzG8zbw765XDVCu-1" source="eYRsBCzG8zbw765XDVCu-2" target="eYRsBCzG8zbw765XDVCu-3">
          <mxGeometry relative="1" as="geometry" />
        </mxCell>
        <mxCell id="eYRsBCzG8zbw765XDVCu-2" value="Graph.layout()" style="shape=hexagon;perimeter=hexagonPerimeter2;whiteSpace=wrap;html=1;fixedSize=1;" vertex="1" parent="eYRsBCzG8zbw765XDVCu-1">
          <mxGeometry x="40" y="40" width="120" height="80" as="geometry" />
        </mxCell>
        <mxCell id="eYRsBCzG8zbw765XDVCu-6" style="edgeStyle=orthogonalEdgeStyle;rounded=0;orthogonalLoop=1;jettySize=auto;html=1;entryX=0;entryY=0.5;entryDx=0;entryDy=0;" edge="1" parent="eYRsBCzG8zbw765XDVCu-1" source="eYRsBCzG8zbw765XDVCu-3" target="eYRsBCzG8zbw765XDVCu-5">
          <mxGeometry relative="1" as="geometry" />
        </mxCell>
        <mxCell id="eYRsBCzG8zbw765XDVCu-3" value="LayoutController.layout()" style="rounded=1;whiteSpace=wrap;html=1;" vertex="1" parent="eYRsBCzG8zbw765XDVCu-1">
          <mxGeometry x="220" y="50" width="140" height="60" as="geometry" />
        </mxCell>
        <mxCell id="eYRsBCzG8zbw765XDVCu-8" style="edgeStyle=orthogonalEdgeStyle;rounded=0;orthogonalLoop=1;jettySize=auto;html=1;entryX=0.5;entryY=0;entryDx=0;entryDy=0;exitX=0.5;exitY=1;exitDx=0;exitDy=0;" edge="1" parent="eYRsBCzG8zbw765XDVCu-1" source="eYRsBCzG8zbw765XDVCu-9" target="eYRsBCzG8zbw765XDVCu-7">
          <mxGeometry relative="1" as="geometry" />
        </mxCell>
        <mxCell id="eYRsBCzG8zbw765XDVCu-10" style="edgeStyle=orthogonalEdgeStyle;rounded=0;orthogonalLoop=1;jettySize=auto;html=1;" edge="1" parent="eYRsBCzG8zbw765XDVCu-1" source="eYRsBCzG8zbw765XDVCu-5" target="eYRsBCzG8zbw765XDVCu-9">
          <mxGeometry relative="1" as="geometry" />
        </mxCell>
        <mxCell id="eYRsBCzG8zbw765XDVCu-5" value="initLayoutInstance()" style="rounded=1;whiteSpace=wrap;html=1;" vertex="1" parent="eYRsBCzG8zbw765XDVCu-1">
          <mxGeometry x="460" y="50" width="130" height="60" as="geometry" />
        </mxCell>
        <mxCell id="eYRsBCzG8zbw765XDVCu-12" style="edgeStyle=orthogonalEdgeStyle;rounded=0;orthogonalLoop=1;jettySize=auto;html=1;entryX=1;entryY=0.5;entryDx=0;entryDy=0;" edge="1" parent="eYRsBCzG8zbw765XDVCu-1" source="eYRsBCzG8zbw765XDVCu-7" target="eYRsBCzG8zbw765XDVCu-11">
          <mxGeometry relative="1" as="geometry" />
        </mxCell>
        <mxCell id="eYRsBCzG8zbw765XDVCu-7" value="Layout.execLayoutMethod()" style="rounded=1;whiteSpace=wrap;html=1;" vertex="1" parent="eYRsBCzG8zbw765XDVCu-1">
          <mxGeometry x="610" y="170" width="200" height="60" as="geometry" />
        </mxCell>
        <mxCell id="eYRsBCzG8zbw765XDVCu-9" value="initLayoutData()" style="rounded=1;whiteSpace=wrap;html=1;" vertex="1" parent="eYRsBCzG8zbw765XDVCu-1">
          <mxGeometry x="660" y="50" width="120" height="60" as="geometry" />
        </mxCell>
        <mxCell id="eYRsBCzG8zbw765XDVCu-24" style="edgeStyle=orthogonalEdgeStyle;rounded=0;orthogonalLoop=1;jettySize=auto;html=1;entryX=1;entryY=0.5;entryDx=0;entryDy=0;" edge="1" parent="eYRsBCzG8zbw765XDVCu-1" source="eYRsBCzG8zbw765XDVCu-11" target="eYRsBCzG8zbw765XDVCu-22">
          <mxGeometry relative="1" as="geometry" />
        </mxCell>
        <mxCell id="eYRsBCzG8zbw765XDVCu-11" value="Force.execute():&lt;br&gt;Layout一种" style="rounded=0;whiteSpace=wrap;html=1;" vertex="1" parent="eYRsBCzG8zbw765XDVCu-1">
          <mxGeometry x="430" y="200" width="120" height="60" as="geometry" />
        </mxCell>
        <mxCell id="eYRsBCzG8zbw765XDVCu-27" style="edgeStyle=orthogonalEdgeStyle;rounded=0;orthogonalLoop=1;jettySize=auto;html=1;" edge="1" parent="eYRsBCzG8zbw765XDVCu-1" source="eYRsBCzG8zbw765XDVCu-14">
          <mxGeometry relative="1" as="geometry">
            <mxPoint x="30" y="430" as="targetPoint" />
            <Array as="points">
              <mxPoint x="30" y="200" />
            </Array>
          </mxGeometry>
        </mxCell>
        <mxCell id="eYRsBCzG8zbw765XDVCu-14" value="Layout.refreshLayout()" style="rounded=1;whiteSpace=wrap;html=1;" vertex="1" parent="eYRsBCzG8zbw765XDVCu-1">
          <mxGeometry x="50" y="170" width="130" height="60" as="geometry" />
        </mxCell>
        <mxCell id="eYRsBCzG8zbw765XDVCu-15" value="Layout.onAllLayoutEnd()" style="rounded=1;whiteSpace=wrap;html=1;" vertex="1" parent="eYRsBCzG8zbw765XDVCu-1">
          <mxGeometry x="50" y="280" width="150" height="60" as="geometry" />
        </mxCell>
        <mxCell id="eYRsBCzG8zbw765XDVCu-21" style="edgeStyle=orthogonalEdgeStyle;rounded=0;orthogonalLoop=1;jettySize=auto;html=1;entryX=1;entryY=0.5;entryDx=0;entryDy=0;" edge="1" parent="eYRsBCzG8zbw765XDVCu-1" target="eYRsBCzG8zbw765XDVCu-14">
          <mxGeometry relative="1" as="geometry">
            <mxPoint x="310" y="230" as="sourcePoint" />
          </mxGeometry>
        </mxCell>
        <mxCell id="eYRsBCzG8zbw765XDVCu-25" style="edgeStyle=orthogonalEdgeStyle;rounded=0;orthogonalLoop=1;jettySize=auto;html=1;entryX=1;entryY=0.5;entryDx=0;entryDy=0;" edge="1" parent="eYRsBCzG8zbw765XDVCu-1" source="eYRsBCzG8zbw765XDVCu-22" target="eYRsBCzG8zbw765XDVCu-15">
          <mxGeometry relative="1" as="geometry" />
        </mxCell>
        <mxCell id="eYRsBCzG8zbw765XDVCu-22" value="是否迭代Position，&lt;br&gt;力学Layout" style="rounded=0;whiteSpace=wrap;html=1;" vertex="1" parent="eYRsBCzG8zbw765XDVCu-1">
          <mxGeometry x="280" y="200" width="90" height="40" as="geometry" />
        </mxCell>
        <mxCell id="eYRsBCzG8zbw765XDVCu-26" value="Graph.succssLayout()" style="rounded=1;whiteSpace=wrap;html=1;" vertex="1" parent="eYRsBCzG8zbw765XDVCu-1">
          <mxGeometry x="10" y="430" width="120" height="60" as="geometry" />
        </mxCell>
      </root>
    </mxGraphModel>
  </diagram>
</mxfile>
